<?xml version="1.0" encoding="iso-8859-1"?>
<!-- Generator: Adobe Illustrator 19.0.0, SVG Export Plug-In . SVG Version: 6.00 Build 0)  -->
<svg version="1.1" id="Layer_1" xmlns="http://www.w3.org/2000/svg" xmlns:xlink="http://www.w3.org/1999/xlink" x="0px" y="0px"
	 viewBox="0 0 505 505" style="enable-background:new 0 0 505 505;" xml:space="preserve">
<circle style="fill:#25d25e;" cx="252.5" cy="252.5" r="252.5"/>
<path style="fill:#324A5E;" d="M326.8,196.1l48.8-48.8l-17.9-17.9l-48.8,48.8c-16.2-12.3-35.8-19.1-56.4-19.1
	c-20.7,0-40.3,6.8-56.4,19.1l-48.8-48.8l-17.9,17.9l48.8,48.8c-25.3,33.3-25.3,79.6,0,112.9l-48.8,48.8l17.9,17.9l48.8-48.8
	c16.2,12.3,35.8,19.1,56.4,19.1s40.3-6.8,56.4-19.1l48.8,48.8l17.9-17.9L326.8,309C352.1,275.7,352.1,229.3,326.8,196.1z
	 M204.3,300.6c-12.9-12.9-19.9-30-19.9-48.1c0-18.2,7.1-35.3,19.9-48.1c12.9-12.9,30-19.9,48.1-19.9c18.2,0,35.3,7.1,48.1,19.9
	c12.9,12.9,19.9,30,19.9,48.1c0,18.2-7.1,35.3-19.9,48.1c-12.9,12.9-30,19.9-48.1,19.9C234.3,320.6,217.2,313.5,204.3,300.6z"/>
<circle style="fill:#FFFFFF;" cx="139.1" cy="139.1" r="49.1"/>
<circle style="fill:#FF7058;" cx="139.1" cy="139.1" r="23.5"/>
<circle style="fill:#FFFFFF;" cx="365.8" cy="365.9" r="49.1"/>
<circle style="fill:#FF7058;" cx="365.8" cy="365.9" r="23.5"/>
<circle style="fill:#FFFFFF;" cx="365.9" cy="139.1" r="49.1"/>
<circle style="fill:#FF7058;" cx="365.9" cy="139.1" r="23.5"/>
<circle style="fill:#FFFFFF;" cx="139.1" cy="365.9" r="49.1"/>
<circle style="fill:#FF7058;" cx="139.1" cy="365.9" r="23.5"/>
<g>
	<rect x="269.9" y="222.5" style="fill:#FFFFFF;" width="16.3" height="59.9"/>
	<rect x="244.3" y="236.3" style="fill:#FFFFFF;" width="16.3" height="46.1"/>
	<rect x="218.7" y="244.2" style="fill:#FFFFFF;" width="16.3" height="38.2"/>
</g>
<g>
</g>
<g>
</g>
<g>
</g>
<g>
</g>
<g>
</g>
<g>
</g>
<g>
</g>
<g>
</g>
<g>
</g>
<g>
</g>
<g>
</g>
<g>
</g>
<g>
</g>
<g>
</g>
<g>
</g>
</svg>
