<?xml version="1.0" encoding="iso-8859-1"?>
<!-- Generator: Adobe Illustrator 19.0.0, SVG Export Plug-In . SVG Version: 6.00 Build 0)  -->
<svg version="1.1" id="Layer_1" xmlns="http://www.w3.org/2000/svg" xmlns:xlink="http://www.w3.org/1999/xlink" x="0px" y="0px"
	 viewBox="0 0 505 505" style="enable-background:new 0 0 505 505;" xml:space="preserve">
<circle style="fill:#25d25e;" cx="252.5" cy="252.5" r="252.5"/>
<path style="fill:#FD8469;" d="M402.5,318l-74.9-39.5l22-12.5l-47.5-93l-63.4,33l-1.1,0.6l-0.4,0.2c-4.6,2.1-10.1,0.1-12.2-4.5
	l-48.9-106l60.4,87.4l64.7-40.3c6-3.7,13.8-1.9,17.6,4l0.6,0.9l62.7,99l24.6-14.1L402.5,318z"/>
<polygon style="fill:#FFFFFF;" points="406.6,372.1 130.9,372.1 130.9,96.3 115.1,96.3 115.1,119.1 94.3,119.1 94.3,134.9 
	115.1,134.9 115.1,174.7 94.3,174.7 94.3,190.4 115.1,190.4 115.1,230.2 94.3,230.2 94.3,246 115.1,246 115.1,285.8 94.3,285.8 
	94.3,301.6 115.1,301.6 115.1,341.4 94.3,341.4 94.3,357.2 115.1,357.2 115.1,387.8 145.7,387.8 145.7,408.7 161.5,408.7 
	161.5,387.8 201.3,387.8 201.3,408.7 217.1,408.7 217.1,387.8 256.9,387.8 256.9,408.7 272.7,408.7 272.7,387.8 312.5,387.8 
	312.5,408.7 328.3,408.7 328.3,387.8 368.1,387.8 368.1,408.7 383.9,408.7 383.9,387.8 406.6,387.8 "/>
<g>
</g>
<g>
</g>
<g>
</g>
<g>
</g>
<g>
</g>
<g>
</g>
<g>
</g>
<g>
</g>
<g>
</g>
<g>
</g>
<g>
</g>
<g>
</g>
<g>
</g>
<g>
</g>
<g>
</g>
</svg>
