<?xml version="1.0" encoding="iso-8859-1"?>
<!-- Generator: Adobe Illustrator 19.0.0, SVG Export Plug-In . SVG Version: 6.00 Build 0)  -->
<svg version="1.1" id="Layer_1" xmlns="http://www.w3.org/2000/svg" xmlns:xlink="http://www.w3.org/1999/xlink" x="0px" y="0px"
	 viewBox="0 0 505 505" style="enable-background:new 0 0 505 505;" xml:space="preserve">
<circle style="fill:#25d25e;" cx="252.5" cy="252.5" r="252.5"/>
<path style="fill:#FFFFFF;" d="M387.3,119H117.7c-13,0-23.6,10.5-23.6,23.6v186.3c0,13,10.6,23.6,23.6,23.6h30.4l-13,60.2L238,352.5
	h149.4c13,0,23.6-10.5,23.6-23.6V142.5C410.9,129.5,400.4,119,387.3,119z"/>
<polygon style="fill:#F1543F;" points="161.1,278.9 150.8,271 218.4,183.3 284.2,247 346.6,197.1 354.7,207.3 283.4,264.4 
	219.8,202.8 "/>
<g>
	<circle style="fill:#FF7058;" cx="350.7" cy="202.2" r="24.2"/>
	<circle style="fill:#FF7058;" cx="283.8" cy="253.3" r="24.2"/>
	<circle style="fill:#FF7058;" cx="219.1" cy="193.1" r="24.2"/>
	<circle style="fill:#FF7058;" cx="154.3" cy="274.9" r="24.2"/>
</g>
<g>
</g>
<g>
</g>
<g>
</g>
<g>
</g>
<g>
</g>
<g>
</g>
<g>
</g>
<g>
</g>
<g>
</g>
<g>
</g>
<g>
</g>
<g>
</g>
<g>
</g>
<g>
</g>
<g>
</g>
</svg>
