<?xml version="1.0" encoding="iso-8859-1"?>
<!-- Generator: Adobe Illustrator 19.0.0, SVG Export Plug-In . SVG Version: 6.00 Build 0)  -->
<svg version="1.1" id="Layer_1" xmlns="http://www.w3.org/2000/svg" xmlns:xlink="http://www.w3.org/1999/xlink" x="0px" y="0px"
	 viewBox="0 0 505 505" style="enable-background:new 0 0 505 505;" xml:space="preserve">
<circle style="fill:#25d25e;" cx="252.5" cy="252.5" r="252.5"/>
<polygon style="fill:#FFFFFF;" points="325.6,86.1 325.6,139.7 379.1,139.7 379.1,418.9 125.9,418.9 125.9,86.1 "/>
<g>
	<polygon style="fill:#E6E9EE;" points="325.6,86.1 379.1,139.7 325.6,139.7 	"/>
	<rect x="155.7" y="112.9" style="fill:#E6E9EE;" width="90" height="11.4"/>
	<rect x="155.7" y="139.7" style="fill:#E6E9EE;" width="62.5" height="11.4"/>
</g>
<g>
	<rect x="331.7" y="293.1" style="fill:#4CDBC4;" width="15.5" height="88.3"/>
	<rect x="302.7" y="314.3" style="fill:#4CDBC4;" width="15.5" height="67"/>
	<rect x="273.7" y="335.2" style="fill:#4CDBC4;" width="15.5" height="46.2"/>
	<rect x="244.7" y="300.8" style="fill:#4CDBC4;" width="15.5" height="80.6"/>
	<rect x="215.7" y="322" style="fill:#4CDBC4;" width="15.5" height="59.3"/>
	<rect x="186.7" y="314.3" style="fill:#4CDBC4;" width="15.5" height="67"/>
	<rect x="157.7" y="335.2" style="fill:#4CDBC4;" width="15.5" height="46.2"/>
</g>
<polygon style="fill:#FF7058;" points="311.4,211.6 280.5,221 288.2,228.7 258.9,258 230.2,229.2 199.6,259.8 205.2,265.4 
	230.2,240.4 258.9,269.2 293.8,234.3 302,242.4 "/>
<g>
</g>
<g>
</g>
<g>
</g>
<g>
</g>
<g>
</g>
<g>
</g>
<g>
</g>
<g>
</g>
<g>
</g>
<g>
</g>
<g>
</g>
<g>
</g>
<g>
</g>
<g>
</g>
<g>
</g>
</svg>
