<?xml version="1.0" encoding="iso-8859-1"?>
<!-- Generator: Adobe Illustrator 19.0.0, SVG Export Plug-In . SVG Version: 6.00 Build 0)  -->
<svg version="1.1" id="Layer_1" xmlns="http://www.w3.org/2000/svg" xmlns:xlink="http://www.w3.org/1999/xlink" x="0px" y="0px"
	 viewBox="0 0 505 505" style="enable-background:new 0 0 505 505;" xml:space="preserve">
<circle style="fill:#25d25e;" cx="252.5" cy="252.5" r="252.5"/>
<polygon style="fill:#FFFFFF;" points="325.6,86.1 325.6,139.7 379.1,139.7 379.1,418.9 125.9,418.9 125.9,86.1 "/>
<polygon style="fill:#E6E9EE;" points="325.6,86.1 379.1,139.7 325.6,139.7 "/>
<path style="fill:#4CDBC4;" d="M245.8,281.9v-12.5c-15.7-1.6-29.7-7.8-42.2-18.7l12.5-14.9c9.6,8.3,19.5,13.3,29.7,14.9v-33.3
	c-12.9-3.1-22.4-7.1-28.4-12.2c-6-5-9-12.5-9-22.4s3.4-18,10.4-24.3c6.9-6.3,15.9-9.7,27-10.3v-8.6h11v8.7
	c12.6,0.9,24.5,5.2,35.7,12.9L281.4,177c-7.5-5.4-15.7-8.7-24.5-9.9v32.2h0.5c13.1,3.1,22.8,7.3,29,12.5c6.2,5.3,9.3,12.9,9.3,22.9
	s-3.5,18.1-10.6,24.4s-16.5,9.7-28.1,10.3v12.3h-11.2V281.9z M233.7,171.2c-2.9,2.6-4.4,5.8-4.4,9.6s1.1,6.9,3.4,9.1
	c2.3,2.2,6.6,4.4,13,6.4v-29.7C240.6,167.1,236.6,168.6,233.7,171.2z M269.7,246.4c3.2-2.6,4.8-5.9,4.8-9.9s-1.3-7.2-3.8-9.5
	s-7.2-4.5-14.1-6.6v30.9C262.2,250.6,266.5,249,269.7,246.4z"/>
<g>
	<rect x="166.8" y="311.5" style="fill:#E6E9EE;" width="171.4" height="13.2"/>
	<rect x="166.8" y="337.1" style="fill:#E6E9EE;" width="171.4" height="13.2"/>
	<rect x="166.8" y="362.8" style="fill:#E6E9EE;" width="171.4" height="13.2"/>
</g>
<g>
</g>
<g>
</g>
<g>
</g>
<g>
</g>
<g>
</g>
<g>
</g>
<g>
</g>
<g>
</g>
<g>
</g>
<g>
</g>
<g>
</g>
<g>
</g>
<g>
</g>
<g>
</g>
<g>
</g>
</svg>
